<svg width="22" height="22" fill="none" xmlns="http://www.w3.org/2000/svg"><path d="M9.197 14.025H7.73V9.259h1.467v4.766zm-.733-5.377c-.53 0-.794-.245-.794-.733a.678.678 0 01.229-.52.796.796 0 01.565-.214c.528 0 .793.246.793.734 0 .489-.264.733-.793.733zm6.172 5.377H13.14v-2.658c0-.692-.246-1.039-.735-1.039-.387 0-.64.194-.764.58-.04.062-.06.185-.06.367v2.75h-1.498v-3.239c0-.733-.01-1.242-.03-1.527h1.283l.092.641c.336-.51.825-.764 1.497-.764.51 0 .922.178 1.237.535.318.356.475.87.475 1.543v2.811zM11 19.25c-4.55 0-8.25-3.7-8.25-8.25S6.45 2.75 11 2.75s8.25 3.7 8.25 8.25-3.7 8.25-8.25 8.25zm0-14.667A6.425 6.425 0 004.583 11 6.425 6.425 0 0011 17.417 6.425 6.425 0 0017.417 11 6.425 6.425 0 0011 4.583z" fill="#000"/></svg>